<?xml version="1.0" standalone="no"?>
<!DOCTYPE svg PUBLIC "-//W3C//DTD SVG 20010904//EN"
 "http://www.w3.org/TR/2001/REC-SVG-20010904/DTD/svg10.dtd">
<svg version="1.0" xmlns="http://www.w3.org/2000/svg"
 width="700.000000pt" height="700.000000pt" viewBox="0 0 700.000000 700.000000"
 preserveAspectRatio="xMidYMid meet">
<metadata>
Created by potrace 1.11, written by Peter Selinger 2001-2013
</metadata>
<g transform="translate(0.000000,700.000000) scale(0.100000,-0.100000)"
fill="#000000" stroke="none">
<path d="M3685 5870 c-22 -3 -55 -5 -72 -5 -18 0 -33 -2 -33 -5 0 -3 -26 -5
-58 -4 -31 1 -61 -1 -67 -4 -5 -3 -28 -5 -52 -3 -24 1 -43 -1 -43 -6 0 -4 -24
-8 -53 -9 -104 -2 -177 -9 -177 -15 0 -4 -9 -5 -20 -2 -15 4 -19 2 -14 -10 3
-8 15 -17 27 -20 12 -3 101 -33 197 -66 96 -34 193 -64 215 -68 60 -10 258 -6
251 6 -2 3 26 6 62 7 37 0 105 4 152 8 47 5 93 8 103 8 11 -1 15 4 11 11 -5 9
-4 9 5 1 13 -12 170 1 185 16 9 9 -22 26 -64 35 -8 2 -51 15 -95 29 -69 23
-149 47 -165 51 -3 0 -21 6 -41 13 -78 27 -187 41 -254 32z"/>
<path d="M2747 5794 c-1 -1 -44 -5 -96 -9 -52 -4 -101 -8 -110 -10 -9 -1 -59
-6 -111 -10 -52 -4 -111 -8 -130 -10 -19 -2 -61 -5 -92 -6 -32 -1 -58 -5 -58
-9 0 -4 -11 -5 -24 -3 -13 3 -27 0 -30 -6 -8 -13 31 -34 46 -25 7 4 8 3 4 -4
-6 -11 12 -17 37 -13 4 0 7 -3 7 -7 0 -5 6 -9 13 -9 17 -1 41 -7 47 -13 3 -3
32 -16 65 -28 33 -13 75 -30 93 -38 18 -8 37 -12 42 -9 4 3 10 1 12 -4 8 -23
126 -30 283 -17 50 5 93 10 96 12 4 2 38 4 78 5 39 1 69 4 67 8 -2 3 26 6 62
6 72 1 212 13 250 22 13 3 21 10 20 15 -5 13 -227 90 -239 82 -5 -3 -9 0 -9 5
0 6 -7 11 -15 11 -8 0 -23 4 -33 9 -41 23 -152 51 -210 54 -34 2 -64 2 -65 1z"/>
<path d="M1787 5714 c-1 -1 -45 -5 -97 -8 -53 -3 -111 -8 -130 -10 -19 -3 -75
-7 -125 -10 -49 -4 -106 -8 -125 -11 -19 -2 -71 -7 -115 -10 -180 -13 -194
-23 -99 -66 38 -17 101 -46 139 -64 139 -66 187 -81 240 -78 28 2 75 5 105 7
30 2 77 4 103 5 32 1 46 5 41 12 -5 8 -1 8 13 0 11 -6 22 -8 25 -6 2 2 46 7
98 11 52 4 104 8 115 9 11 1 56 5 100 9 175 16 195 20 195 36 0 7 -77 40 -104
44 -8 1 -21 8 -30 15 -9 7 -22 11 -30 8 -8 -3 -16 -2 -18 3 -5 14 -208 91
-220 84 -6 -4 -8 -2 -5 3 4 7 -9 12 -34 15 -22 2 -41 3 -42 2z"/>
<path d="M4378 5655 c-2 -1 -39 -5 -83 -9 -44 -4 -102 -9 -130 -12 -57 -5
-143 -11 -198 -13 -25 -1 -36 -5 -31 -12 4 -7 -2 -6 -17 1 -13 7 -24 9 -26 4
-2 -5 -21 -9 -43 -7 -22 1 -40 -3 -40 -8 0 -6 -5 -7 -10 -4 -14 8 -54 -5 -44
-14 5 -4 29 -14 54 -21 25 -8 50 -17 55 -20 8 -6 257 -89 285 -95 3 -1 17 -7
31 -13 91 -38 193 -42 384 -18 22 3 74 8 115 11 41 4 78 12 82 18 6 9 8 9 8
-1 0 -9 7 -11 23 -6 12 4 41 7 64 7 24 -1 41 2 39 6 -2 3 15 6 37 5 66 -2 140
10 144 23 3 9 -111 53 -182 69 -5 2 -64 19 -130 39 -66 20 -124 38 -130 39 -5
2 -17 6 -25 9 -41 16 -94 25 -158 25 -39 0 -72 -1 -74 -3z"/>
<path d="M3358 5564 c-2 -2 -38 -6 -79 -9 -41 -3 -96 -7 -124 -10 -27 -3 -77
-7 -110 -10 -33 -3 -78 -7 -100 -10 -22 -3 -71 -8 -110 -11 -60 -5 -85 -8
-128 -13 -31 -4 55 -50 99 -53 12 -1 21 -5 18 -9 -2 -4 6 -10 18 -14 13 -4 50
-17 83 -30 33 -13 87 -33 120 -45 33 -12 68 -26 78 -31 10 -5 22 -7 27 -4 4 3
10 -1 12 -7 3 -9 32 -13 99 -13 87 1 243 11 286 19 10 2 52 7 93 10 41 4 86 9
100 11 14 3 61 7 105 10 186 12 227 22 184 46 -13 7 -26 14 -29 14 -3 0 -43
14 -90 30 -47 16 -88 30 -92 31 -5 1 -10 3 -13 4 -3 1 -8 3 -12 5 -5 1 -21 7
-36 13 -16 7 -33 10 -38 6 -5 -3 -9 0 -9 5 0 6 -7 11 -15 11 -8 0 -23 4 -33
10 -49 27 -125 44 -209 46 -50 1 -93 1 -95 -2z"/>
<path d="M921 5503 c-7 -18 -9 -73 -6 -153 2 -69 6 -201 9 -295 11 -333 19
-383 68 -414 108 -68 326 -191 339 -191 33 0 35 27 25 380 -13 451 -16 481
-44 517 -15 19 -347 183 -370 183 -5 0 -15 -12 -21 -27z"/>
<path d="M2249 5465 c-3 -2 -44 -6 -93 -10 -49 -3 -103 -8 -120 -10 -30 -4
-165 -16 -216 -20 -153 -10 -230 -21 -230 -35 0 -14 79 -52 92 -44 7 5 8 3 3
-6 -6 -10 -4 -12 9 -7 9 4 15 3 12 -1 -2 -4 30 -23 72 -41 42 -19 106 -47 140
-63 35 -15 69 -25 74 -22 6 4 8 2 5 -3 -9 -15 15 -20 107 -22 52 -1 83 2 94
11 12 10 14 10 8 0 -5 -9 2 -11 30 -6 21 3 52 7 68 9 17 2 33 4 36 5 3 1 13 1
23 0 10 -1 26 4 35 12 13 11 14 11 8 -1 -6 -10 -4 -12 10 -8 11 3 53 8 94 11
41 4 93 9 115 12 39 5 84 9 195 19 163 14 159 18 -135 136 -16 7 -32 13 -35
14 -3 1 -18 7 -33 13 -16 7 -31 12 -33 12 -3 0 -26 10 -52 23 -39 18 -66 22
-163 24 -64 1 -118 0 -120 -2z"/>
<path d="M5228 5414 c-2 -1 -32 -4 -66 -6 -34 -1 -62 -5 -62 -8 0 -3 -24 -5
-52 -5 -29 1 -78 -3 -108 -7 -30 -4 -80 -10 -110 -13 -83 -7 -118 -13 -131
-21 -8 -5 -9 -3 -4 6 6 9 4 11 -4 5 -11 -6 -63 -12 -128 -14 -35 -1 -31 -39 5
-47 15 -3 38 -10 52 -16 24 -10 164 -57 185 -62 6 -2 17 -6 25 -9 52 -21 190
-66 211 -69 13 -1 26 -6 29 -10 17 -21 160 -29 280 -14 19 2 64 7 100 10 36 4
76 8 90 10 14 3 61 7 104 11 43 4 88 9 100 11 12 2 53 6 91 9 39 3 79 8 90 10
11 2 28 4 38 4 9 1 17 7 17 14 0 12 -43 29 -145 57 -22 6 -44 13 -50 14 -5 2
-13 4 -17 5 -4 1 -27 9 -50 17 -24 9 -47 17 -53 18 -5 2 -36 11 -69 20 -32 10
-64 19 -70 21 -6 1 -18 5 -26 8 -20 7 -88 28 -103 31 -7 2 -19 6 -27 9 -17 7
-137 17 -142 11z"/>
<path d="M4099 5306 c-2 -2 -40 -7 -84 -10 -44 -4 -93 -9 -110 -11 -16 -2 -59
-6 -95 -10 -36 -3 -85 -8 -110 -11 -25 -3 -65 -7 -90 -9 -160 -16 -177 -18
-190 -31 -12 -12 5 -19 190 -89 69 -26 140 -54 159 -62 18 -8 45 -19 60 -24
14 -4 57 -19 94 -33 59 -21 81 -24 165 -20 53 2 115 5 137 7 22 3 72 7 110 11
65 6 86 8 183 21 20 3 60 7 87 10 28 3 70 7 95 10 25 2 70 7 100 10 30 4 64 9
74 12 19 5 19 6 -3 24 -13 11 -29 19 -36 19 -8 0 -26 5 -42 12 -15 6 -32 12
-38 14 -5 2 -71 24 -145 49 -74 26 -139 48 -145 49 -5 2 -21 8 -35 13 -14 6
-28 9 -32 6 -5 -2 -8 1 -8 8 0 7 -3 10 -6 6 -4 -3 -21 1 -38 10 -21 11 -64 17
-137 20 -58 1 -108 1 -110 -1z"/>
<path d="M1470 5255 c-13 -16 -14 -132 -5 -445 11 -356 16 -416 36 -455 8 -17
140 -101 303 -193 22 -13 56 -32 74 -43 18 -10 44 -19 56 -19 32 0 36 27 31
235 -2 94 -6 271 -9 395 -6 302 -9 316 -69 355 -37 24 -379 185 -393 185 -6 0
-17 -7 -24 -15z"/>
<path d="M2875 5183 c-154 -15 -206 -21 -260 -27 -22 -3 -67 -7 -100 -10 -287
-26 -303 -29 -273 -60 23 -22 189 -97 200 -90 7 5 8 2 3 -6 -6 -10 -4 -12 8
-7 10 3 17 2 17 -4 0 -6 4 -8 9 -5 5 4 11 2 13 -2 3 -9 132 -69 158 -74 8 -2
21 -9 29 -16 7 -7 20 -11 27 -8 8 3 14 2 14 -2 0 -9 11 -11 103 -18 37 -3 76
-2 85 2 18 8 83 14 139 14 18 0 34 4 37 9 3 4 22 6 42 4 21 -2 44 -1 53 3 9 4
34 8 56 9 143 9 445 44 463 54 13 7 10 12 -19 30 -31 19 -51 25 -71 22 -5 0
-8 3 -8 9 0 5 -7 6 -17 3 -12 -5 -14 -3 -8 7 6 10 4 12 -8 7 -10 -4 -17 -2
-17 4 0 6 -7 9 -15 5 -8 -3 -21 1 -29 9 -8 8 -17 15 -21 15 -3 0 -36 14 -72
31 -36 17 -73 32 -82 34 -25 6 -85 29 -99 39 -27 17 -110 33 -168 33 -32 -1
-117 -7 -189 -14z"/>
<path d="M6008 5085 c-2 -1 -34 -6 -73 -10 -38 -4 -83 -8 -100 -10 -16 -2 -59
-6 -95 -10 -36 -3 -81 -8 -100 -11 -19 -2 -55 -7 -80 -9 -25 -2 -65 -7 -90
-10 -25 -3 -65 -8 -89 -11 -56 -6 -89 -22 -113 -54 -23 -31 -27 -104 -43 -686
l-7 -231 24 -27 c24 -28 63 -35 133 -22 25 4 88 13 220 31 11 1 45 5 75 9 30
4 66 9 80 11 14 2 45 6 70 10 25 3 56 8 70 10 14 2 45 7 70 10 52 7 88 30 112
71 16 29 19 66 34 399 3 72 7 166 9 210 8 164 6 274 -4 294 -6 11 -21 23 -33
27 -27 8 -65 13 -70 9z"/>
<path d="M2119 4954 c-15 -18 -18 -302 -6 -716 7 -251 7 -251 150 -334 104
-61 110 -65 270 -159 107 -63 141 -67 153 -19 7 29 -2 869 -11 927 -10 69 -30
86 -190 163 -351 168 -343 165 -366 138z"/>
<path d="M4780 4949 c-30 -4 -84 -10 -120 -14 -36 -3 -83 -8 -105 -10 -111
-13 -143 -16 -175 -20 -19 -2 -60 -7 -90 -10 -30 -4 -70 -8 -88 -10 -48 -6
-96 -32 -114 -63 -18 -32 -20 -72 -22 -589 l-1 -361 24 -21 c32 -28 56 -29
186 -12 44 6 89 13 100 15 18 3 107 16 145 21 8 1 40 5 70 9 30 4 80 11 110
16 30 5 80 12 110 15 100 11 128 23 155 63 23 35 24 47 30 252 4 118 8 258 10
310 4 106 7 275 6 333 -1 27 -8 45 -26 63 -22 22 -32 25 -88 23 -34 -2 -87 -6
-117 -10z"/>
<path d="M3617 4824 c-1 -2 -29 -5 -62 -9 -33 -3 -76 -8 -95 -10 -19 -3 -57
-7 -85 -10 -27 -3 -66 -8 -85 -10 -19 -3 -60 -7 -90 -10 -30 -3 -71 -8 -91
-11 -20 -2 -58 -6 -84 -9 -129 -11 -176 -28 -201 -76 -13 -27 -15 -74 -14
-323 0 -160 1 -365 2 -455 0 -91 5 -177 10 -192 17 -50 97 -69 188 -44 8 2 40
7 70 10 30 3 100 12 155 20 55 8 120 17 145 20 25 3 56 7 70 10 14 3 48 7 75
10 28 3 57 8 65 10 8 2 40 7 70 10 60 7 107 32 128 66 8 13 15 61 17 118 3 82
7 704 6 798 -1 19 -12 44 -27 63 -26 30 -29 31 -96 28 -38 -1 -70 -3 -71 -4z"/>
<path d="M961 4407 c-9 -22 -8 -97 3 -427 11 -319 18 -365 61 -407 44 -43 329
-243 346 -243 28 0 28 -4 15 475 -9 325 -11 349 -32 379 -15 23 -321 222 -367
239 -13 5 -20 0 -26 -16z"/>
<path d="M1500 4075 c-12 -15 -11 -207 5 -668 5 -135 17 -191 47 -220 35 -33
367 -272 391 -281 22 -9 30 -8 38 4 10 15 4 743 -7 819 -12 82 -33 112 -114
159 -25 15 -108 66 -184 114 -77 49 -145 88 -151 88 -7 0 -18 -7 -25 -15z"/>
<path d="M5860 3809 c-63 -10 -137 -21 -165 -24 -64 -9 -291 -43 -330 -50 -79
-14 -92 -18 -113 -32 -25 -15 -44 -53 -47 -93 -4 -39 -14 -321 -21 -580 -5
-221 -5 -237 13 -259 21 -25 74 -34 128 -20 17 4 50 10 75 13 45 5 62 8 155
26 28 5 66 12 85 16 310 52 340 60 371 104 20 27 25 73 35 300 3 80 7 183 9
230 13 291 13 323 3 345 -20 44 -47 47 -198 24z"/>
<path d="M2114 3675 c-8 -31 3 -783 12 -840 3 -22 12 -52 20 -67 15 -29 462
-361 493 -366 40 -7 44 18 44 251 -2 683 -3 691 -47 744 -19 23 -193 140 -241
163 -20 9 -170 104 -194 122 -13 10 -37 18 -52 18 -22 0 -30 -6 -35 -25z"/>
<path d="M4800 3654 c-41 -7 -93 -16 -115 -19 -22 -2 -132 -18 -245 -35 -113
-17 -220 -33 -239 -35 -102 -13 -140 -51 -146 -148 -2 -34 -5 -234 -7 -444 -3
-371 -2 -383 17 -402 23 -23 75 -31 125 -19 19 4 55 10 80 13 25 4 53 9 62 11
10 3 30 7 45 10 16 3 53 9 83 14 30 5 69 12 85 14 17 3 44 8 60 10 28 5 46 9
105 21 14 2 48 7 75 11 75 9 131 37 150 74 20 38 22 64 31 430 12 482 13 473
-41 496 -19 8 -38 14 -42 13 -4 -1 -42 -7 -83 -15z"/>
<path d="M3659 3486 c-2 -2 -26 -7 -54 -10 -27 -3 -97 -12 -155 -21 -58 -8
-121 -17 -140 -20 -38 -5 -106 -16 -130 -20 -8 -1 -40 -6 -70 -10 -30 -4 -62
-9 -70 -10 -8 -1 -40 -6 -70 -10 -70 -9 -106 -28 -131 -68 -19 -31 -20 -48
-18 -467 2 -239 7 -448 12 -463 17 -51 79 -65 177 -42 3 1 25 5 50 9 25 4 79
13 120 21 41 8 89 16 105 19 134 20 405 69 428 78 16 6 40 26 54 45 l26 34 4
422 c2 232 1 437 -2 454 -4 23 -15 38 -35 48 -27 14 -91 21 -101 11z"/>
<path d="M996 3333 c-3 -10 -4 -67 -1 -128 2 -60 7 -195 10 -300 10 -335 12
-343 98 -417 34 -29 67 -58 72 -64 6 -5 44 -39 85 -75 41 -35 86 -74 100 -87
14 -12 34 -21 45 -20 19 3 20 10 19 198 -3 375 -16 603 -39 639 -12 20 -353
271 -367 271 -9 0 -19 -8 -22 -17z"/>
<path d="M1530 2935 c-9 -11 -11 -81 -5 -302 9 -412 13 -467 31 -512 13 -32
55 -74 193 -194 97 -84 191 -164 209 -177 55 -41 57 -30 54 243 -6 567 -10
611 -60 657 -35 33 -392 300 -401 300 -5 0 -14 -7 -21 -15z"/>
<path d="M5910 2613 c-14 -2 -144 -26 -290 -53 -146 -27 -278 -51 -295 -53
-93 -16 -110 -25 -137 -67 -20 -31 -26 -102 -35 -410 -11 -393 -9 -436 13
-461 25 -28 67 -23 339 37 11 2 34 7 50 10 17 3 50 10 75 15 42 10 57 13 113
23 58 11 160 37 177 46 45 24 60 63 65 177 3 59 7 142 10 183 10 162 19 443
16 500 -1 24 -45 62 -68 59 -4 -1 -19 -4 -33 -6z"/>
<path d="M2139 2459 c-8 -17 -10 -114 -5 -383 7 -417 10 -458 34 -498 15 -25
128 -129 367 -333 32 -27 70 -60 84 -72 31 -27 57 -29 69 -5 4 9 7 157 6 327
-3 575 -3 575 -63 634 -47 47 -434 338 -460 346 -14 4 -23 0 -32 -16z"/>
<path d="M4819 2416 c-2 -2 -22 -6 -44 -9 -38 -6 -342 -61 -395 -72 -14 -3
-68 -12 -120 -21 -133 -21 -175 -38 -201 -81 -22 -35 -22 -45 -27 -453 l-4
-417 23 -22 c30 -28 50 -27 252 14 94 20 183 38 197 40 14 3 79 16 145 30 66
14 134 29 150 32 64 12 114 55 122 102 4 27 12 231 18 526 7 277 7 280 -15
308 -17 21 -30 27 -59 27 -21 0 -40 -2 -42 -4z"/>
<path d="M3605 2195 c-33 -7 -73 -15 -90 -18 -97 -16 -290 -50 -350 -62 -38
-7 -110 -21 -160 -30 -103 -20 -135 -35 -161 -79 -19 -33 -19 -35 -14 -640 l3
-249 26 -25 c22 -20 33 -23 76 -19 50 5 95 13 127 23 10 3 28 7 40 9 13 3 100
20 193 39 442 91 441 90 471 149 15 28 18 84 22 441 4 436 4 443 -45 465 -30
14 -61 13 -138 -4z"/>
</g>
</svg>
